<mxfile host="app.diagrams.net" modified="2022-06-21T01:57:55.595Z" agent="5.0 (Windows NT 10.0; Win64; x64) AppleWebKit/537.36 (KHTML, like Gecko) Chrome/102.0.5005.124 Safari/537.36 Edg/102.0.1245.41" etag="5Eryl2twNMA1ysTdmwun" version="20.0.1" type="github">
  <diagram id="C5RBs43oDa-KdzZeNtuy" name="Page-1">
    <mxGraphModel dx="1422" dy="762" grid="1" gridSize="10" guides="1" tooltips="1" connect="1" arrows="1" fold="1" page="1" pageScale="1" pageWidth="827" pageHeight="1169" math="0" shadow="0">
      <root>
        <mxCell id="WIyWlLk6GJQsqaUBKTNV-0" />
        <mxCell id="WIyWlLk6GJQsqaUBKTNV-1" parent="WIyWlLk6GJQsqaUBKTNV-0" />
        <mxCell id="Cn3ge6LVzbtPTEH3k1_--30" value="" style="edgeStyle=orthogonalEdgeStyle;rounded=0;orthogonalLoop=1;jettySize=auto;html=1;fontSize=20;" edge="1" parent="WIyWlLk6GJQsqaUBKTNV-1" source="WIyWlLk6GJQsqaUBKTNV-3" target="Cn3ge6LVzbtPTEH3k1_--29">
          <mxGeometry relative="1" as="geometry" />
        </mxCell>
        <mxCell id="Cn3ge6LVzbtPTEH3k1_--34" value="" style="edgeStyle=orthogonalEdgeStyle;rounded=0;orthogonalLoop=1;jettySize=auto;html=1;fontSize=20;" edge="1" parent="WIyWlLk6GJQsqaUBKTNV-1" source="WIyWlLk6GJQsqaUBKTNV-3" target="Cn3ge6LVzbtPTEH3k1_--33">
          <mxGeometry relative="1" as="geometry" />
        </mxCell>
        <mxCell id="WIyWlLk6GJQsqaUBKTNV-3" value="案件来源" style="rounded=1;whiteSpace=wrap;html=1;fontSize=12;glass=0;strokeWidth=1;shadow=0;" parent="WIyWlLk6GJQsqaUBKTNV-1" vertex="1">
          <mxGeometry x="580" y="110" width="120" height="40" as="geometry" />
        </mxCell>
        <mxCell id="Cn3ge6LVzbtPTEH3k1_--25" value="" style="group" vertex="1" connectable="0" parent="WIyWlLk6GJQsqaUBKTNV-1">
          <mxGeometry y="110" width="360" height="880" as="geometry" />
        </mxCell>
        <mxCell id="Cn3ge6LVzbtPTEH3k1_--0" value="案件来源" style="rounded=1;whiteSpace=wrap;html=1;fontSize=12;glass=0;strokeWidth=1;shadow=0;" vertex="1" parent="Cn3ge6LVzbtPTEH3k1_--25">
          <mxGeometry x="120" width="120" height="40" as="geometry" />
        </mxCell>
        <mxCell id="Cn3ge6LVzbtPTEH3k1_--5" value="拍照、取证" style="rounded=1;whiteSpace=wrap;html=1;fontSize=12;glass=0;strokeWidth=1;shadow=0;" vertex="1" parent="Cn3ge6LVzbtPTEH3k1_--25">
          <mxGeometry x="120" y="120" width="120" height="40" as="geometry" />
        </mxCell>
        <mxCell id="Cn3ge6LVzbtPTEH3k1_--6" value="" style="edgeStyle=orthogonalEdgeStyle;rounded=0;orthogonalLoop=1;jettySize=auto;html=1;" edge="1" parent="Cn3ge6LVzbtPTEH3k1_--25" source="Cn3ge6LVzbtPTEH3k1_--0" target="Cn3ge6LVzbtPTEH3k1_--5">
          <mxGeometry relative="1" as="geometry" />
        </mxCell>
        <mxCell id="Cn3ge6LVzbtPTEH3k1_--7" value="简易流程" style="rounded=1;whiteSpace=wrap;html=1;fontSize=12;glass=0;strokeWidth=1;shadow=0;" vertex="1" parent="Cn3ge6LVzbtPTEH3k1_--25">
          <mxGeometry x="120" y="240" width="120" height="40" as="geometry" />
        </mxCell>
        <mxCell id="Cn3ge6LVzbtPTEH3k1_--8" value="" style="edgeStyle=orthogonalEdgeStyle;rounded=0;orthogonalLoop=1;jettySize=auto;html=1;" edge="1" parent="Cn3ge6LVzbtPTEH3k1_--25" source="Cn3ge6LVzbtPTEH3k1_--5" target="Cn3ge6LVzbtPTEH3k1_--7">
          <mxGeometry relative="1" as="geometry" />
        </mxCell>
        <mxCell id="Cn3ge6LVzbtPTEH3k1_--9" value="执法人员出示执法证" style="rounded=1;whiteSpace=wrap;html=1;fontSize=12;glass=0;strokeWidth=1;shadow=0;" vertex="1" parent="Cn3ge6LVzbtPTEH3k1_--25">
          <mxGeometry y="360" width="120" height="40" as="geometry" />
        </mxCell>
        <mxCell id="Cn3ge6LVzbtPTEH3k1_--10" value="" style="edgeStyle=orthogonalEdgeStyle;rounded=0;orthogonalLoop=1;jettySize=auto;html=1;" edge="1" parent="Cn3ge6LVzbtPTEH3k1_--25" source="Cn3ge6LVzbtPTEH3k1_--7" target="Cn3ge6LVzbtPTEH3k1_--9">
          <mxGeometry relative="1" as="geometry" />
        </mxCell>
        <mxCell id="Cn3ge6LVzbtPTEH3k1_--11" value="查找照片、审核身份证" style="rounded=1;whiteSpace=wrap;html=1;fontSize=12;glass=0;strokeWidth=1;shadow=0;" vertex="1" parent="Cn3ge6LVzbtPTEH3k1_--25">
          <mxGeometry x="120" y="480" width="120" height="40" as="geometry" />
        </mxCell>
        <mxCell id="Cn3ge6LVzbtPTEH3k1_--12" value="" style="edgeStyle=orthogonalEdgeStyle;rounded=0;orthogonalLoop=1;jettySize=auto;html=1;" edge="1" parent="Cn3ge6LVzbtPTEH3k1_--25" source="Cn3ge6LVzbtPTEH3k1_--9" target="Cn3ge6LVzbtPTEH3k1_--11">
          <mxGeometry relative="1" as="geometry" />
        </mxCell>
        <mxCell id="Cn3ge6LVzbtPTEH3k1_--15" style="edgeStyle=orthogonalEdgeStyle;rounded=0;orthogonalLoop=1;jettySize=auto;html=1;entryX=0.5;entryY=0;entryDx=0;entryDy=0;" edge="1" parent="Cn3ge6LVzbtPTEH3k1_--25" source="Cn3ge6LVzbtPTEH3k1_--13" target="Cn3ge6LVzbtPTEH3k1_--11">
          <mxGeometry relative="1" as="geometry" />
        </mxCell>
        <mxCell id="Cn3ge6LVzbtPTEH3k1_--13" value="告知违法人携带身份证" style="rounded=1;whiteSpace=wrap;html=1;fontSize=12;glass=0;strokeWidth=1;shadow=0;" vertex="1" parent="Cn3ge6LVzbtPTEH3k1_--25">
          <mxGeometry x="240" y="360" width="120" height="40" as="geometry" />
        </mxCell>
        <mxCell id="Cn3ge6LVzbtPTEH3k1_--14" value="" style="edgeStyle=orthogonalEdgeStyle;rounded=0;orthogonalLoop=1;jettySize=auto;html=1;" edge="1" parent="Cn3ge6LVzbtPTEH3k1_--25" source="Cn3ge6LVzbtPTEH3k1_--7" target="Cn3ge6LVzbtPTEH3k1_--13">
          <mxGeometry relative="1" as="geometry" />
        </mxCell>
        <mxCell id="Cn3ge6LVzbtPTEH3k1_--16" value="填写当场处罚决定书" style="rounded=1;whiteSpace=wrap;html=1;fontSize=12;glass=0;strokeWidth=1;shadow=0;" vertex="1" parent="Cn3ge6LVzbtPTEH3k1_--25">
          <mxGeometry x="120" y="600" width="120" height="40" as="geometry" />
        </mxCell>
        <mxCell id="Cn3ge6LVzbtPTEH3k1_--17" value="" style="edgeStyle=orthogonalEdgeStyle;rounded=0;orthogonalLoop=1;jettySize=auto;html=1;" edge="1" parent="Cn3ge6LVzbtPTEH3k1_--25" source="Cn3ge6LVzbtPTEH3k1_--11" target="Cn3ge6LVzbtPTEH3k1_--16">
          <mxGeometry relative="1" as="geometry" />
        </mxCell>
        <mxCell id="Cn3ge6LVzbtPTEH3k1_--18" value="签字缴款" style="rounded=1;whiteSpace=wrap;html=1;fontSize=12;glass=0;strokeWidth=1;shadow=0;" vertex="1" parent="Cn3ge6LVzbtPTEH3k1_--25">
          <mxGeometry y="720" width="120" height="40" as="geometry" />
        </mxCell>
        <mxCell id="Cn3ge6LVzbtPTEH3k1_--19" value="" style="edgeStyle=orthogonalEdgeStyle;rounded=0;orthogonalLoop=1;jettySize=auto;html=1;" edge="1" parent="Cn3ge6LVzbtPTEH3k1_--25" source="Cn3ge6LVzbtPTEH3k1_--16" target="Cn3ge6LVzbtPTEH3k1_--18">
          <mxGeometry relative="1" as="geometry" />
        </mxCell>
        <mxCell id="Cn3ge6LVzbtPTEH3k1_--20" value="填写放行单" style="rounded=1;whiteSpace=wrap;html=1;fontSize=12;glass=0;strokeWidth=1;shadow=0;" vertex="1" parent="Cn3ge6LVzbtPTEH3k1_--25">
          <mxGeometry x="240" y="720" width="120" height="40" as="geometry" />
        </mxCell>
        <mxCell id="Cn3ge6LVzbtPTEH3k1_--21" value="" style="edgeStyle=orthogonalEdgeStyle;rounded=0;orthogonalLoop=1;jettySize=auto;html=1;" edge="1" parent="Cn3ge6LVzbtPTEH3k1_--25" source="Cn3ge6LVzbtPTEH3k1_--16" target="Cn3ge6LVzbtPTEH3k1_--20">
          <mxGeometry relative="1" as="geometry" />
        </mxCell>
        <mxCell id="Cn3ge6LVzbtPTEH3k1_--22" value="存档" style="rounded=1;whiteSpace=wrap;html=1;fontSize=12;glass=0;strokeWidth=1;shadow=0;" vertex="1" parent="Cn3ge6LVzbtPTEH3k1_--25">
          <mxGeometry x="120" y="840" width="120" height="40" as="geometry" />
        </mxCell>
        <mxCell id="Cn3ge6LVzbtPTEH3k1_--23" value="" style="edgeStyle=orthogonalEdgeStyle;rounded=0;orthogonalLoop=1;jettySize=auto;html=1;" edge="1" parent="Cn3ge6LVzbtPTEH3k1_--25" source="Cn3ge6LVzbtPTEH3k1_--18" target="Cn3ge6LVzbtPTEH3k1_--22">
          <mxGeometry relative="1" as="geometry" />
        </mxCell>
        <mxCell id="Cn3ge6LVzbtPTEH3k1_--24" style="edgeStyle=orthogonalEdgeStyle;rounded=0;orthogonalLoop=1;jettySize=auto;html=1;entryX=0.5;entryY=0;entryDx=0;entryDy=0;" edge="1" parent="Cn3ge6LVzbtPTEH3k1_--25" source="Cn3ge6LVzbtPTEH3k1_--20" target="Cn3ge6LVzbtPTEH3k1_--22">
          <mxGeometry relative="1" as="geometry" />
        </mxCell>
        <mxCell id="Cn3ge6LVzbtPTEH3k1_--28" value="&lt;h1 style=&quot;text-align: left; font-size: 20px;&quot;&gt;非机动车处理流程图&lt;/h1&gt;" style="text;html=1;strokeColor=none;fillColor=none;align=center;verticalAlign=middle;whiteSpace=wrap;rounded=0;fontSize=20;" vertex="1" parent="WIyWlLk6GJQsqaUBKTNV-1">
          <mxGeometry x="55" y="30" width="250" height="30" as="geometry" />
        </mxCell>
        <mxCell id="Cn3ge6LVzbtPTEH3k1_--32" value="" style="edgeStyle=orthogonalEdgeStyle;rounded=0;orthogonalLoop=1;jettySize=auto;html=1;fontSize=20;" edge="1" parent="WIyWlLk6GJQsqaUBKTNV-1" source="Cn3ge6LVzbtPTEH3k1_--29" target="Cn3ge6LVzbtPTEH3k1_--31">
          <mxGeometry relative="1" as="geometry" />
        </mxCell>
        <mxCell id="Cn3ge6LVzbtPTEH3k1_--29" value="简易程序" style="rounded=1;whiteSpace=wrap;html=1;fontSize=12;glass=0;strokeWidth=1;shadow=0;" vertex="1" parent="WIyWlLk6GJQsqaUBKTNV-1">
          <mxGeometry x="460" y="230" width="120" height="40" as="geometry" />
        </mxCell>
        <mxCell id="Cn3ge6LVzbtPTEH3k1_--69" value="" style="edgeStyle=orthogonalEdgeStyle;rounded=0;orthogonalLoop=1;jettySize=auto;html=1;fontSize=20;" edge="1" parent="WIyWlLk6GJQsqaUBKTNV-1" source="Cn3ge6LVzbtPTEH3k1_--31" target="Cn3ge6LVzbtPTEH3k1_--68">
          <mxGeometry relative="1" as="geometry" />
        </mxCell>
        <mxCell id="Cn3ge6LVzbtPTEH3k1_--31" value="执法人员&lt;br&gt;出示执法证件" style="rounded=1;whiteSpace=wrap;html=1;fontSize=12;glass=0;strokeWidth=1;shadow=0;" vertex="1" parent="WIyWlLk6GJQsqaUBKTNV-1">
          <mxGeometry x="460" y="350" width="120" height="40" as="geometry" />
        </mxCell>
        <mxCell id="Cn3ge6LVzbtPTEH3k1_--36" value="" style="edgeStyle=orthogonalEdgeStyle;rounded=0;orthogonalLoop=1;jettySize=auto;html=1;fontSize=20;" edge="1" parent="WIyWlLk6GJQsqaUBKTNV-1" source="Cn3ge6LVzbtPTEH3k1_--33" target="Cn3ge6LVzbtPTEH3k1_--35">
          <mxGeometry relative="1" as="geometry" />
        </mxCell>
        <mxCell id="Cn3ge6LVzbtPTEH3k1_--33" value="一般程序" style="rounded=1;whiteSpace=wrap;html=1;fontSize=12;glass=0;strokeWidth=1;shadow=0;" vertex="1" parent="WIyWlLk6GJQsqaUBKTNV-1">
          <mxGeometry x="700" y="230" width="120" height="40" as="geometry" />
        </mxCell>
        <mxCell id="Cn3ge6LVzbtPTEH3k1_--38" value="" style="edgeStyle=orthogonalEdgeStyle;rounded=0;orthogonalLoop=1;jettySize=auto;html=1;fontSize=20;" edge="1" parent="WIyWlLk6GJQsqaUBKTNV-1" source="Cn3ge6LVzbtPTEH3k1_--35" target="Cn3ge6LVzbtPTEH3k1_--37">
          <mxGeometry relative="1" as="geometry" />
        </mxCell>
        <mxCell id="Cn3ge6LVzbtPTEH3k1_--35" value="立案" style="rounded=1;whiteSpace=wrap;html=1;fontSize=12;glass=0;strokeWidth=1;shadow=0;" vertex="1" parent="WIyWlLk6GJQsqaUBKTNV-1">
          <mxGeometry x="700" y="350" width="120" height="40" as="geometry" />
        </mxCell>
        <mxCell id="Cn3ge6LVzbtPTEH3k1_--40" value="" style="edgeStyle=orthogonalEdgeStyle;rounded=0;orthogonalLoop=1;jettySize=auto;html=1;fontSize=20;" edge="1" parent="WIyWlLk6GJQsqaUBKTNV-1" source="Cn3ge6LVzbtPTEH3k1_--37" target="Cn3ge6LVzbtPTEH3k1_--39">
          <mxGeometry relative="1" as="geometry" />
        </mxCell>
        <mxCell id="Cn3ge6LVzbtPTEH3k1_--37" value="调查取证" style="rounded=1;whiteSpace=wrap;html=1;fontSize=12;glass=0;strokeWidth=1;shadow=0;" vertex="1" parent="WIyWlLk6GJQsqaUBKTNV-1">
          <mxGeometry x="700" y="470" width="120" height="40" as="geometry" />
        </mxCell>
        <mxCell id="Cn3ge6LVzbtPTEH3k1_--42" value="" style="edgeStyle=orthogonalEdgeStyle;rounded=0;orthogonalLoop=1;jettySize=auto;html=1;fontSize=20;" edge="1" parent="WIyWlLk6GJQsqaUBKTNV-1" source="Cn3ge6LVzbtPTEH3k1_--39" target="Cn3ge6LVzbtPTEH3k1_--41">
          <mxGeometry relative="1" as="geometry" />
        </mxCell>
        <mxCell id="Cn3ge6LVzbtPTEH3k1_--39" value="审批" style="rounded=1;whiteSpace=wrap;html=1;fontSize=12;glass=0;strokeWidth=1;shadow=0;" vertex="1" parent="WIyWlLk6GJQsqaUBKTNV-1">
          <mxGeometry x="700" y="590" width="120" height="40" as="geometry" />
        </mxCell>
        <mxCell id="Cn3ge6LVzbtPTEH3k1_--44" value="" style="edgeStyle=orthogonalEdgeStyle;rounded=0;orthogonalLoop=1;jettySize=auto;html=1;fontSize=20;" edge="1" parent="WIyWlLk6GJQsqaUBKTNV-1" source="Cn3ge6LVzbtPTEH3k1_--41" target="Cn3ge6LVzbtPTEH3k1_--43">
          <mxGeometry relative="1" as="geometry" />
        </mxCell>
        <mxCell id="Cn3ge6LVzbtPTEH3k1_--48" value="" style="edgeStyle=orthogonalEdgeStyle;rounded=0;orthogonalLoop=1;jettySize=auto;html=1;fontSize=20;" edge="1" parent="WIyWlLk6GJQsqaUBKTNV-1" source="Cn3ge6LVzbtPTEH3k1_--41" target="Cn3ge6LVzbtPTEH3k1_--47">
          <mxGeometry relative="1" as="geometry">
            <Array as="points">
              <mxPoint x="760" y="790" />
            </Array>
          </mxGeometry>
        </mxCell>
        <mxCell id="Cn3ge6LVzbtPTEH3k1_--81" style="edgeStyle=orthogonalEdgeStyle;rounded=0;orthogonalLoop=1;jettySize=auto;html=1;exitX=0.5;exitY=1;exitDx=0;exitDy=0;entryX=1;entryY=0.5;entryDx=0;entryDy=0;fontSize=20;" edge="1" parent="WIyWlLk6GJQsqaUBKTNV-1" source="Cn3ge6LVzbtPTEH3k1_--41" target="Cn3ge6LVzbtPTEH3k1_--45">
          <mxGeometry relative="1" as="geometry" />
        </mxCell>
        <mxCell id="Cn3ge6LVzbtPTEH3k1_--41" value="拟定处罚意见" style="rounded=1;whiteSpace=wrap;html=1;fontSize=12;glass=0;strokeWidth=1;shadow=0;" vertex="1" parent="WIyWlLk6GJQsqaUBKTNV-1">
          <mxGeometry x="700" y="710" width="120" height="40" as="geometry" />
        </mxCell>
        <mxCell id="Cn3ge6LVzbtPTEH3k1_--50" value="" style="edgeStyle=orthogonalEdgeStyle;rounded=0;orthogonalLoop=1;jettySize=auto;html=1;fontSize=20;entryX=0.5;entryY=0;entryDx=0;entryDy=0;" edge="1" parent="WIyWlLk6GJQsqaUBKTNV-1" source="Cn3ge6LVzbtPTEH3k1_--43" target="Cn3ge6LVzbtPTEH3k1_--55">
          <mxGeometry relative="1" as="geometry">
            <mxPoint x="760" y="950" as="targetPoint" />
          </mxGeometry>
        </mxCell>
        <mxCell id="Cn3ge6LVzbtPTEH3k1_--52" value="" style="edgeStyle=orthogonalEdgeStyle;rounded=0;orthogonalLoop=1;jettySize=auto;html=1;fontSize=20;" edge="1" parent="WIyWlLk6GJQsqaUBKTNV-1" source="Cn3ge6LVzbtPTEH3k1_--43" target="Cn3ge6LVzbtPTEH3k1_--51">
          <mxGeometry relative="1" as="geometry" />
        </mxCell>
        <mxCell id="Cn3ge6LVzbtPTEH3k1_--54" value="" style="edgeStyle=orthogonalEdgeStyle;rounded=0;orthogonalLoop=1;jettySize=auto;html=1;fontSize=20;" edge="1" parent="WIyWlLk6GJQsqaUBKTNV-1" source="Cn3ge6LVzbtPTEH3k1_--43" target="Cn3ge6LVzbtPTEH3k1_--53">
          <mxGeometry relative="1" as="geometry" />
        </mxCell>
        <mxCell id="Cn3ge6LVzbtPTEH3k1_--43" value="处罚告知" style="rounded=1;whiteSpace=wrap;html=1;fontSize=12;glass=0;strokeWidth=1;shadow=0;" vertex="1" parent="WIyWlLk6GJQsqaUBKTNV-1">
          <mxGeometry x="700" y="830" width="120" height="40" as="geometry" />
        </mxCell>
        <mxCell id="Cn3ge6LVzbtPTEH3k1_--45" value="撤销立案" style="rounded=1;whiteSpace=wrap;html=1;fontSize=12;glass=0;strokeWidth=1;shadow=0;" vertex="1" parent="WIyWlLk6GJQsqaUBKTNV-1">
          <mxGeometry x="580" y="770" width="120" height="40" as="geometry" />
        </mxCell>
        <mxCell id="Cn3ge6LVzbtPTEH3k1_--47" value="移送处理" style="rounded=1;whiteSpace=wrap;html=1;fontSize=12;glass=0;strokeWidth=1;shadow=0;" vertex="1" parent="WIyWlLk6GJQsqaUBKTNV-1">
          <mxGeometry x="820" y="770" width="120" height="40" as="geometry" />
        </mxCell>
        <mxCell id="Cn3ge6LVzbtPTEH3k1_--60" style="edgeStyle=orthogonalEdgeStyle;rounded=0;orthogonalLoop=1;jettySize=auto;html=1;exitX=0.5;exitY=1;exitDx=0;exitDy=0;entryX=0.5;entryY=0;entryDx=0;entryDy=0;fontSize=20;" edge="1" parent="WIyWlLk6GJQsqaUBKTNV-1" source="Cn3ge6LVzbtPTEH3k1_--51" target="Cn3ge6LVzbtPTEH3k1_--55">
          <mxGeometry relative="1" as="geometry" />
        </mxCell>
        <mxCell id="Cn3ge6LVzbtPTEH3k1_--51" value="听取当事人陈述和申辩" style="rounded=1;whiteSpace=wrap;html=1;fontSize=12;glass=0;strokeWidth=1;shadow=0;" vertex="1" parent="WIyWlLk6GJQsqaUBKTNV-1">
          <mxGeometry x="580" y="950" width="120" height="40" as="geometry" />
        </mxCell>
        <mxCell id="Cn3ge6LVzbtPTEH3k1_--61" style="edgeStyle=orthogonalEdgeStyle;rounded=0;orthogonalLoop=1;jettySize=auto;html=1;fontSize=20;exitX=0.5;exitY=1;exitDx=0;exitDy=0;" edge="1" parent="WIyWlLk6GJQsqaUBKTNV-1" source="Cn3ge6LVzbtPTEH3k1_--53">
          <mxGeometry relative="1" as="geometry">
            <mxPoint x="760" y="1070" as="targetPoint" />
          </mxGeometry>
        </mxCell>
        <mxCell id="Cn3ge6LVzbtPTEH3k1_--53" value="重大处罚依申请召开听证会" style="rounded=1;whiteSpace=wrap;html=1;fontSize=12;glass=0;strokeWidth=1;shadow=0;" vertex="1" parent="WIyWlLk6GJQsqaUBKTNV-1">
          <mxGeometry x="820" y="950" width="120" height="40" as="geometry" />
        </mxCell>
        <mxCell id="Cn3ge6LVzbtPTEH3k1_--58" value="" style="edgeStyle=orthogonalEdgeStyle;rounded=0;orthogonalLoop=1;jettySize=auto;html=1;fontSize=20;" edge="1" parent="WIyWlLk6GJQsqaUBKTNV-1" source="Cn3ge6LVzbtPTEH3k1_--55" target="Cn3ge6LVzbtPTEH3k1_--57">
          <mxGeometry relative="1" as="geometry" />
        </mxCell>
        <mxCell id="Cn3ge6LVzbtPTEH3k1_--78" value="" style="edgeStyle=orthogonalEdgeStyle;rounded=0;orthogonalLoop=1;jettySize=auto;html=1;fontSize=20;" edge="1" parent="WIyWlLk6GJQsqaUBKTNV-1" source="Cn3ge6LVzbtPTEH3k1_--55" target="Cn3ge6LVzbtPTEH3k1_--77">
          <mxGeometry relative="1" as="geometry" />
        </mxCell>
        <mxCell id="Cn3ge6LVzbtPTEH3k1_--55" value="处罚决定审批" style="rounded=1;whiteSpace=wrap;html=1;fontSize=12;glass=0;strokeWidth=1;shadow=0;" vertex="1" parent="WIyWlLk6GJQsqaUBKTNV-1">
          <mxGeometry x="700" y="1070" width="120" height="40" as="geometry" />
        </mxCell>
        <mxCell id="Cn3ge6LVzbtPTEH3k1_--64" value="" style="edgeStyle=orthogonalEdgeStyle;rounded=0;orthogonalLoop=1;jettySize=auto;html=1;fontSize=20;" edge="1" parent="WIyWlLk6GJQsqaUBKTNV-1" source="Cn3ge6LVzbtPTEH3k1_--57" target="Cn3ge6LVzbtPTEH3k1_--63">
          <mxGeometry relative="1" as="geometry" />
        </mxCell>
        <mxCell id="Cn3ge6LVzbtPTEH3k1_--57" value="依法制作处罚决定" style="rounded=1;whiteSpace=wrap;html=1;fontSize=12;glass=0;strokeWidth=1;shadow=0;" vertex="1" parent="WIyWlLk6GJQsqaUBKTNV-1">
          <mxGeometry x="580" y="1190" width="120" height="40" as="geometry" />
        </mxCell>
        <mxCell id="Cn3ge6LVzbtPTEH3k1_--66" value="" style="edgeStyle=orthogonalEdgeStyle;rounded=0;orthogonalLoop=1;jettySize=auto;html=1;fontSize=20;" edge="1" parent="WIyWlLk6GJQsqaUBKTNV-1" source="Cn3ge6LVzbtPTEH3k1_--63" target="Cn3ge6LVzbtPTEH3k1_--65">
          <mxGeometry relative="1" as="geometry" />
        </mxCell>
        <mxCell id="Cn3ge6LVzbtPTEH3k1_--63" value="送达执行" style="rounded=1;whiteSpace=wrap;html=1;fontSize=12;glass=0;strokeWidth=1;shadow=0;" vertex="1" parent="WIyWlLk6GJQsqaUBKTNV-1">
          <mxGeometry x="580" y="1290" width="120" height="40" as="geometry" />
        </mxCell>
        <mxCell id="Cn3ge6LVzbtPTEH3k1_--65" value="结案归档" style="rounded=1;whiteSpace=wrap;html=1;fontSize=12;glass=0;strokeWidth=1;shadow=0;" vertex="1" parent="WIyWlLk6GJQsqaUBKTNV-1">
          <mxGeometry x="580" y="1390" width="120" height="40" as="geometry" />
        </mxCell>
        <mxCell id="Cn3ge6LVzbtPTEH3k1_--71" value="" style="edgeStyle=orthogonalEdgeStyle;rounded=0;orthogonalLoop=1;jettySize=auto;html=1;fontSize=20;" edge="1" parent="WIyWlLk6GJQsqaUBKTNV-1" source="Cn3ge6LVzbtPTEH3k1_--68" target="Cn3ge6LVzbtPTEH3k1_--70">
          <mxGeometry relative="1" as="geometry" />
        </mxCell>
        <mxCell id="Cn3ge6LVzbtPTEH3k1_--68" value="告知拟处罚的事实、理由、依据和陈述申辩的权利" style="rounded=1;whiteSpace=wrap;html=1;fontSize=12;glass=0;strokeWidth=1;shadow=0;" vertex="1" parent="WIyWlLk6GJQsqaUBKTNV-1">
          <mxGeometry x="460" y="470" width="120" height="40" as="geometry" />
        </mxCell>
        <mxCell id="Cn3ge6LVzbtPTEH3k1_--73" value="" style="edgeStyle=orthogonalEdgeStyle;rounded=0;orthogonalLoop=1;jettySize=auto;html=1;fontSize=20;" edge="1" parent="WIyWlLk6GJQsqaUBKTNV-1" source="Cn3ge6LVzbtPTEH3k1_--70" target="Cn3ge6LVzbtPTEH3k1_--72">
          <mxGeometry relative="1" as="geometry" />
        </mxCell>
        <mxCell id="Cn3ge6LVzbtPTEH3k1_--70" value="填写预订格式的行政处罚决定书" style="rounded=1;whiteSpace=wrap;html=1;fontSize=12;glass=0;strokeWidth=1;shadow=0;" vertex="1" parent="WIyWlLk6GJQsqaUBKTNV-1">
          <mxGeometry x="460" y="590" width="120" height="40" as="geometry" />
        </mxCell>
        <mxCell id="Cn3ge6LVzbtPTEH3k1_--75" value="" style="edgeStyle=orthogonalEdgeStyle;rounded=0;orthogonalLoop=1;jettySize=auto;html=1;fontSize=20;" edge="1" parent="WIyWlLk6GJQsqaUBKTNV-1" source="Cn3ge6LVzbtPTEH3k1_--72" target="Cn3ge6LVzbtPTEH3k1_--74">
          <mxGeometry relative="1" as="geometry" />
        </mxCell>
        <mxCell id="Cn3ge6LVzbtPTEH3k1_--72" value="当场送达依法执行" style="rounded=1;whiteSpace=wrap;html=1;fontSize=12;glass=0;strokeWidth=1;shadow=0;" vertex="1" parent="WIyWlLk6GJQsqaUBKTNV-1">
          <mxGeometry x="460" y="710" width="120" height="40" as="geometry" />
        </mxCell>
        <mxCell id="Cn3ge6LVzbtPTEH3k1_--74" value="备案归档" style="rounded=1;whiteSpace=wrap;html=1;fontSize=12;glass=0;strokeWidth=1;shadow=0;" vertex="1" parent="WIyWlLk6GJQsqaUBKTNV-1">
          <mxGeometry x="460" y="830" width="120" height="40" as="geometry" />
        </mxCell>
        <mxCell id="Cn3ge6LVzbtPTEH3k1_--80" style="edgeStyle=orthogonalEdgeStyle;rounded=0;orthogonalLoop=1;jettySize=auto;html=1;entryX=1;entryY=0.5;entryDx=0;entryDy=0;fontSize=20;" edge="1" parent="WIyWlLk6GJQsqaUBKTNV-1" source="Cn3ge6LVzbtPTEH3k1_--77" target="Cn3ge6LVzbtPTEH3k1_--41">
          <mxGeometry relative="1" as="geometry">
            <Array as="points">
              <mxPoint x="980" y="1210" />
              <mxPoint x="980" y="730" />
            </Array>
          </mxGeometry>
        </mxCell>
        <mxCell id="Cn3ge6LVzbtPTEH3k1_--77" value="当事人的事实、理由或证据成立，行政机关改变原拟作出的行政处罚决定" style="rounded=1;whiteSpace=wrap;html=1;fontSize=12;glass=0;strokeWidth=1;shadow=0;" vertex="1" parent="WIyWlLk6GJQsqaUBKTNV-1">
          <mxGeometry x="820" y="1190" width="120" height="40" as="geometry" />
        </mxCell>
        <mxCell id="Cn3ge6LVzbtPTEH3k1_--82" value="&lt;h1 style=&quot;text-align: left; font-size: 20px;&quot;&gt;行政处罚流程图&lt;/h1&gt;" style="text;html=1;strokeColor=none;fillColor=none;align=center;verticalAlign=middle;whiteSpace=wrap;rounded=0;fontSize=20;" vertex="1" parent="WIyWlLk6GJQsqaUBKTNV-1">
          <mxGeometry x="515" y="30" width="250" height="30" as="geometry" />
        </mxCell>
      </root>
    </mxGraphModel>
  </diagram>
</mxfile>
